<svg width="49" height="47" viewBox="0 0 49 47" fill="none" xmlns="http://www.w3.org/2000/svg">
<path d="M36.5867 47L29.4 39.1667L32.4315 36.1378L36.5867 40.2894L45.9685 30.9156L49 34.5972M25.6107 47H5.22667C2.32587 47 0 44.6761 0 41.7778V5.22222C0 2.32389 2.32587 0 5.22667 0H41.8133C44.7141 0 47.04 2.32389 47.04 5.22222V25.5889C45.4459 24.675 43.6949 24.0222 41.8133 23.7089V5.22222H5.22667V41.7778H23.7291C24.0427 43.6578 24.696 45.4072 25.6107 47ZM23.52 36.5556H10.4533V31.3333H23.52M30.5237 26.1111H10.4533V20.8889H36.5867V23.7089C34.3653 24.0744 32.3269 24.91 30.5237 26.1111ZM36.5867 15.6667H10.4533V10.4444H36.5867" fill="#968EC4"/>
</svg>
