<svg width="34" height="34" viewBox="0 0 34 34" fill="none" xmlns="http://www.w3.org/2000/svg">
<path d="M24.0834 12.9908C23.8179 12.727 23.4589 12.5789 23.0846 12.5789C22.7103 12.5789 22.3513 12.727 22.0859 12.9908L17 18.0058L11.985 12.9908C11.7196 12.727 11.3605 12.5789 10.9863 12.5789C10.612 12.5789 10.253 12.727 9.98753 12.9908C9.85475 13.1225 9.74935 13.2792 9.67743 13.4518C9.60551 13.6245 9.56848 13.8096 9.56848 13.9966C9.56848 14.1837 9.60551 14.3688 9.67743 14.5415C9.74935 14.7141 9.85475 14.8708 9.98753 15.0025L15.9942 21.0091C16.1259 21.1419 16.2826 21.2473 16.4552 21.3192C16.6278 21.3912 16.813 21.4282 17 21.4282C17.187 21.4282 17.3722 21.3912 17.5448 21.3192C17.7175 21.2473 17.8742 21.1419 18.0059 21.0091L24.0834 15.0025C24.2161 14.8708 24.3215 14.7141 24.3935 14.5415C24.4654 14.3688 24.5024 14.1837 24.5024 13.9966C24.5024 13.8096 24.4654 13.6245 24.3935 13.4518C24.3215 13.2792 24.2161 13.1225 24.0834 12.9908Z" fill="#564976"/>
</svg>
