<svg width="61" height="44" viewBox="0 0 61 44" fill="none" xmlns="http://www.w3.org/2000/svg">
<path d="M0 9.625H26.7303L28.7865 13.75H2.05618L0 9.625ZM2.74157 17.875H29.4719L31.5281 22H4.79775L2.74157 17.875ZM47.2921 39.875C49.5676 39.875 51.4045 38.0325 51.4045 35.75C51.4045 33.4675 49.5676 31.625 47.2921 31.625C45.0166 31.625 43.1798 33.4675 43.1798 35.75C43.1798 38.0325 45.0166 39.875 47.2921 39.875ZM51.4045 15.125H44.5506V22H56.778L51.4045 15.125ZM19.8764 39.875C22.1519 39.875 23.9888 38.0325 23.9888 35.75C23.9888 33.4675 22.1519 31.625 19.8764 31.625C17.6009 31.625 15.764 33.4675 15.764 35.75C15.764 38.0325 17.6009 39.875 19.8764 39.875ZM52.7753 11L61 22V35.75H55.5169C55.5169 40.315 51.8431 44 47.2921 44C42.7411 44 39.0674 40.315 39.0674 35.75H28.1011C28.1011 40.315 24.4 44 19.8764 44C15.3254 44 11.6517 40.315 11.6517 35.75H6.16854V26.125H11.6517V30.25H13.7353C15.2431 28.5725 17.4364 27.5 19.8764 27.5C22.3164 27.5 24.5097 28.5725 26.0175 30.25H39.0674V5.5H6.16854C6.16854 2.4475 8.60854 0 11.6517 0H44.5506V11H52.7753Z" fill="#968EC4"/>
</svg>
