<svg width="123" height="124" viewBox="0 0 123 124" fill="none" xmlns="http://www.w3.org/2000/svg">
<g filter="url(#filter0_d_219_93)">
<rect x="4" width="115" height="116" rx="12" fill="#665C7D"/>
</g>
<path d="M57.625 32.4C57.625 30.0075 59.5938 28.05 62 28.05C64.4062 28.05 66.375 30.0075 66.375 32.4C66.375 34.7925 64.4062 36.75 62 36.75C59.5938 36.75 57.625 34.7925 57.625 32.4ZM44.5 45.45C46.9062 45.45 48.875 43.4925 48.875 41.1C48.875 38.7075 46.9062 36.75 44.5 36.75C42.0938 36.75 40.125 38.7075 40.125 41.1C40.125 43.4925 42.0938 45.45 44.5 45.45ZM35.75 28.05C35.75 25.6575 33.7812 23.7 31.375 23.7C28.9688 23.7 27 25.6575 27 28.05C27 30.4425 28.9688 32.4 31.375 32.4C33.7812 32.4 35.75 30.4425 35.75 28.05ZM48.875 23.7C51.2812 23.7 53.25 21.7425 53.25 19.35C53.25 16.9575 51.2812 15 48.875 15C46.4688 15 44.5 16.9575 44.5 19.35C44.5 21.7425 46.4688 23.7 48.875 23.7ZM75.125 23.7C77.5312 23.7 79.5 21.7425 79.5 19.35C79.5 16.9575 77.5312 15 75.125 15C72.7188 15 70.75 16.9575 70.75 19.35C70.75 21.7425 72.7188 23.7 75.125 23.7ZM92.625 23.7C90.2188 23.7 88.25 25.6575 88.25 28.05C88.25 30.4425 90.2188 32.4 92.625 32.4C95.0312 32.4 97 30.4425 97 28.05C97 25.6575 95.0312 23.7 92.625 23.7ZM75.125 41.1C75.125 43.4925 77.0938 45.45 79.5 45.45C81.9062 45.45 83.875 43.4925 83.875 41.1C83.875 38.7075 81.9062 36.75 79.5 36.75C77.0938 36.75 75.125 38.7075 75.125 41.1ZM90.4375 63.1545C90.4375 66.243 89.3 69.201 87.4187 71.55C89.2562 73.899 90.4375 76.857 90.4375 79.9455C90.4375 87.471 84.1813 93.6045 76.6125 93.6045L74.7313 93.474C72.675 98.4765 67.7313 102 62 102C56.2688 102 51.325 98.4765 49.2688 93.474L47.3875 93.6045C39.775 93.6045 33.5625 87.471 33.5625 79.9455C33.5625 76.857 34.7 73.899 36.5813 71.55C34.7438 69.201 33.5625 66.243 33.5625 63.1545C33.5625 55.629 39.8187 49.4955 47.3875 49.4955L49.2688 49.626C51.325 44.6235 56.2688 41.1 62 41.1C67.7313 41.1 72.675 44.6235 74.7313 49.626L76.6125 49.4955C84.1813 49.4955 90.4375 55.629 90.4375 63.1545ZM42.3125 63.1545C42.3125 65.025 43.4937 66.765 45.2437 67.635L49.0938 69.375C49.6188 66.243 51.325 63.459 53.7312 61.5015L50.1875 59.0655C49.4 58.5 48.4375 58.1955 47.3875 58.1955C44.6312 58.1955 42.3125 60.414 42.3125 63.1545ZM53.775 81.5985C51.325 79.641 49.6188 76.857 49.0938 73.725L45.2437 75.465C43.4937 76.335 42.3125 78.075 42.3125 79.902C42.3125 82.6425 44.6312 84.861 47.3875 84.861C48.3937 84.861 49.3563 84.6 50.2313 83.991L53.775 81.5985ZM66.9875 88.515L66.5062 83.7735C65.1063 84.2955 63.575 84.6 62 84.6C60.425 84.6 58.9375 84.2955 57.625 83.7735L57.0125 88.515C57.1 91.125 59.2875 93.3 62 93.3C64.7125 93.3 66.9 91.125 66.9875 88.515ZM66.9875 54.585C66.9 51.975 64.7125 49.8 62 49.8C59.2875 49.8 57.1 51.975 57.0125 54.585L57.625 59.3265C58.9375 58.8045 60.425 58.5 62 58.5C63.575 58.5 65.1063 58.8045 66.5062 59.3265L66.9875 54.585ZM81.6875 79.902C81.6875 78.075 80.5062 76.248 78.7562 75.4215L74.9062 73.5945C74.3812 76.8135 72.675 79.5975 70.2688 81.555L73.8125 84.0345C74.6 84.6 75.5625 84.9045 76.6125 84.9045C79.3688 84.9045 81.6875 82.686 81.6875 79.902ZM81.6875 63.1545C81.6875 60.414 79.3688 58.1955 76.6125 58.1955C75.6063 58.1955 74.6437 58.5 73.7687 59.0655L70.1812 61.5015C72.6312 63.459 74.3375 66.243 74.8625 69.375L78.7125 67.635C80.5062 66.765 81.6875 65.025 81.6875 63.1545Z" fill="#F0F0F0"/>
<defs>
<filter id="filter0_d_219_93" x="0" y="0" width="123" height="124" filterUnits="userSpaceOnUse" color-interpolation-filters="sRGB">
<feFlood flood-opacity="0" result="BackgroundImageFix"/>
<feColorMatrix in="SourceAlpha" type="matrix" values="0 0 0 0 0 0 0 0 0 0 0 0 0 0 0 0 0 0 127 0" result="hardAlpha"/>
<feOffset dy="4"/>
<feGaussianBlur stdDeviation="2"/>
<feComposite in2="hardAlpha" operator="out"/>
<feColorMatrix type="matrix" values="0 0 0 0 0 0 0 0 0 0 0 0 0 0 0 0 0 0 0.25 0"/>
<feBlend mode="normal" in2="BackgroundImageFix" result="effect1_dropShadow_219_93"/>
<feBlend mode="normal" in="SourceGraphic" in2="effect1_dropShadow_219_93" result="shape"/>
</filter>
</defs>
</svg>
