<svg width="126" height="127" viewBox="0 0 126 127" fill="none" xmlns="http://www.w3.org/2000/svg">
<g filter="url(#filter0_d_219_92)">
<rect x="4" width="118" height="119" rx="12" fill="#665C7D"/>
</g>
<path d="M49.1413 27.0576C53.7833 26.4065 58.7006 31.3473 60.1168 38.1649C61.5331 44.9441 58.976 50.9956 54.334 51.685C49.7313 52.3745 44.7746 47.4336 43.3191 40.6161C41.8635 33.8369 44.4993 27.7853 49.1413 27.0576ZM77.2687 27.0576C81.95 27.7853 84.5464 33.8369 83.1695 40.6161C81.6746 47.4336 76.7572 52.3745 72.1152 51.685C67.4339 50.9956 64.8769 44.9441 66.3324 38.1649C67.7486 31.3473 72.666 26.4065 77.2687 27.0576ZM28.0949 44.676C32.5795 42.7992 38.6771 46.208 41.8635 52.1446C44.8533 58.1962 43.8305 64.5541 39.3852 66.4308C34.9399 68.3076 28.8817 64.9371 25.7739 58.9239C22.6661 52.9107 23.7676 46.5144 28.0949 44.676ZM98.9051 44.676C103.232 46.5144 104.334 52.9107 101.226 58.9239C98.1183 64.9371 92.0601 68.3076 87.6148 66.4308C83.1695 64.5541 82.1467 58.1962 85.1365 52.1446C88.3229 46.208 94.4205 42.7992 98.9051 44.676ZM92.3355 85.9643C92.4929 89.5645 89.6604 93.5478 86.2773 95.0415C79.2356 98.1822 70.8957 91.6711 63.0673 91.6711C55.2388 91.6711 46.8203 98.4503 39.8966 95.0415C35.9627 93.1648 33.2483 88.1857 33.7597 84.0492C34.4678 78.3424 41.5095 75.2783 45.6794 71.1035C51.2262 65.7031 55.1601 55.5534 63.0673 55.5534C70.9351 55.5534 75.105 65.5499 80.4158 71.1035C84.7824 75.7762 92.0601 79.7212 92.3355 85.9643Z" fill="#F0F0F0"/>
<defs>
<filter id="filter0_d_219_92" x="0" y="0" width="126" height="127" filterUnits="userSpaceOnUse" color-interpolation-filters="sRGB">
<feFlood flood-opacity="0" result="BackgroundImageFix"/>
<feColorMatrix in="SourceAlpha" type="matrix" values="0 0 0 0 0 0 0 0 0 0 0 0 0 0 0 0 0 0 127 0" result="hardAlpha"/>
<feOffset dy="4"/>
<feGaussianBlur stdDeviation="2"/>
<feComposite in2="hardAlpha" operator="out"/>
<feColorMatrix type="matrix" values="0 0 0 0 0 0 0 0 0 0 0 0 0 0 0 0 0 0 0.25 0"/>
<feBlend mode="normal" in2="BackgroundImageFix" result="effect1_dropShadow_219_92"/>
<feBlend mode="normal" in="SourceGraphic" in2="effect1_dropShadow_219_92" result="shape"/>
</filter>
</defs>
</svg>
