<svg width="79" height="79" viewBox="0 0 79 79" fill="none" xmlns="http://www.w3.org/2000/svg">
<path d="M39.5 6.58331C31.0614 6.60738 22.9544 9.8714 16.8533 15.7012V9.87498C16.8533 9.00198 16.5065 8.16473 15.8892 7.54742C15.2719 6.93011 14.4346 6.58331 13.5616 6.58331C12.6886 6.58331 11.8514 6.93011 11.2341 7.54742C10.6168 8.16473 10.27 9.00198 10.27 9.87498V24.6875C10.27 25.5605 10.6168 26.3977 11.2341 27.015C11.8514 27.6323 12.6886 27.9791 13.5616 27.9791H28.3741C29.2471 27.9791 30.0844 27.6323 30.7017 27.015C31.319 26.3977 31.6658 25.5605 31.6658 24.6875C31.6658 23.8145 31.319 22.9772 30.7017 22.3599C30.0844 21.7426 29.2471 21.3958 28.3741 21.3958H20.4741C24.7065 16.973 30.3475 14.1629 36.4273 13.4486C42.5071 12.7344 48.6458 14.1606 53.788 17.4822C58.9301 20.8037 62.7544 25.8129 64.6033 31.6487C66.4522 37.4844 66.2102 43.7819 63.9189 49.4586C61.6276 55.1352 57.4302 59.8362 52.0483 62.7533C46.6665 65.6704 40.4364 66.6214 34.4294 65.4427C28.4223 64.264 23.0136 61.0293 19.1331 56.2947C15.2526 51.5601 13.1429 45.6215 13.1666 39.5C13.1666 38.627 12.8198 37.7897 12.2025 37.1724C11.5852 36.5551 10.748 36.2083 9.87498 36.2083C9.00198 36.2083 8.16473 36.5551 7.54742 37.1724C6.93011 37.7897 6.58331 38.627 6.58331 39.5C6.58331 46.0103 8.51384 52.3744 12.1308 57.7875C15.7477 63.2006 20.8886 67.4196 26.9033 69.911C32.918 72.4024 39.5365 73.0543 45.9217 71.7842C52.3069 70.5141 58.1721 67.3791 62.7756 62.7756C67.3791 58.1721 70.5141 52.3069 71.7842 45.9217C73.0543 39.5365 72.4024 32.918 69.911 26.9033C67.4196 20.8886 63.2006 15.7477 57.7875 12.1308C52.3744 8.51384 46.0103 6.58331 39.5 6.58331ZM39.5 26.3333C38.627 26.3333 37.7897 26.6801 37.1724 27.2974C36.5551 27.9147 36.2083 28.752 36.2083 29.625V39.5C36.2083 40.373 36.5551 41.2102 37.1724 41.8275C37.7897 42.4448 38.627 42.7916 39.5 42.7916H46.0833C46.9563 42.7916 47.7936 42.4448 48.4109 41.8275C49.0282 41.2102 49.375 40.373 49.375 39.5C49.375 38.627 49.0282 37.7897 48.4109 37.1724C47.7936 36.5551 46.9563 36.2083 46.0833 36.2083H42.7916V29.625C42.7916 28.752 42.4448 27.9147 41.8275 27.2974C41.2102 26.6801 40.373 26.3333 39.5 26.3333Z" fill="#E5DEFC"/>
</svg>
