<svg width="165" height="35" viewBox="0 0 165 35" fill="none" xmlns="http://www.w3.org/2000/svg">
<rect width="165" height="35" rx="12" fill="#968EC4"/>
<path d="M154.615 25.29L150.75 21.61C152.25 19.8144 152.977 17.5353 152.78 15.2413C152.583 12.9473 151.479 10.8128 149.693 9.27667C147.908 7.74053 145.577 6.91954 143.18 6.9825C140.783 7.04546 138.503 7.98759 136.807 9.61517C135.112 11.2427 134.131 13.4321 134.065 15.7329C133.999 18.0338 134.855 20.2714 136.455 21.9855C138.055 23.6997 140.278 24.7601 142.668 24.9488C145.058 25.1375 147.432 24.4401 149.302 23L153.135 26.68C153.232 26.7738 153.347 26.8481 153.474 26.8989C153.601 26.9497 153.737 26.9758 153.875 26.9758C154.012 26.9758 154.149 26.9497 154.276 26.8989C154.403 26.8481 154.518 26.7738 154.615 26.68C154.802 26.4936 154.907 26.2444 154.907 25.985C154.907 25.7257 154.802 25.4765 154.615 25.29V25.29ZM143.458 23C142.016 23 140.606 22.5895 139.407 21.8203C138.208 21.0511 137.274 19.9579 136.722 18.6788C136.17 17.3997 136.025 15.9923 136.307 14.6344C136.588 13.2765 137.283 12.0292 138.302 11.0503C139.322 10.0713 140.621 9.40463 142.036 9.13453C143.45 8.86443 144.916 9.00306 146.249 9.53287C147.581 10.0627 148.72 10.9599 149.521 12.111C150.322 13.2622 150.75 14.6156 150.75 16C150.75 17.8565 149.982 19.637 148.614 20.9498C147.247 22.2625 145.392 23 143.458 23V23Z" fill="white"/>
</svg>
