<svg width="61" height="61" viewBox="0 0 61 61" fill="none" xmlns="http://www.w3.org/2000/svg">
<path d="M53.375 41.9375C53.375 42.9033 52.8413 43.7421 52.0279 44.1741L31.9487 55.4591C31.5421 55.7641 31.0338 55.9166 30.5 55.9166C29.9663 55.9166 29.4579 55.7641 29.0513 55.4591L8.97208 44.1741C8.15875 43.7421 7.625 42.9033 7.625 41.9375V19.0625C7.625 18.0966 8.15875 17.2579 8.97208 16.8258L29.0513 5.54081C29.4579 5.23581 29.9663 5.08331 30.5 5.08331C31.0338 5.08331 31.5421 5.23581 31.9487 5.54081L52.0279 16.8258C52.8413 17.2579 53.375 18.0966 53.375 19.0625V41.9375ZM30.5 10.5479L25.6962 13.2675L40.6667 21.8837L45.6483 19.0625L30.5 10.5479ZM15.3517 19.0625L30.5 27.5771L35.4817 24.7812L20.5367 16.1396L15.3517 19.0625ZM12.7083 40.4379L27.9583 49.0287V31.9741L12.7083 23.4087V40.4379ZM48.2917 40.4379V23.4087L33.0417 31.9741V49.0287L48.2917 40.4379Z" fill="#968EC4"/>
</svg>
