<svg width="74" height="77" viewBox="0 0 74 77" fill="none" xmlns="http://www.w3.org/2000/svg">
<g filter="url(#filter0_d_0_147)">
<path d="M21.5833 18.75C20.9735 18.75 20.3774 18.9333 19.8703 19.2766C19.3633 19.62 18.9681 20.1081 18.7347 20.6791C18.5013 21.2501 18.4403 21.8785 18.5592 22.4846C18.6782 23.0908 18.9719 23.6477 19.4031 24.0847C19.8343 24.5217 20.3837 24.8194 20.9818 24.9399C21.5799 25.0605 22.1999 24.9986 22.7633 24.7621C23.3267 24.5256 23.8082 24.1251 24.147 23.6111C24.4858 23.0972 24.6667 22.4931 24.6667 21.875C24.6667 21.0462 24.3418 20.2513 23.7636 19.6653C23.1853 19.0792 22.4011 18.75 21.5833 18.75ZM66.9392 36.8125L37.7092 7.24999C37.4217 6.93581 37.0735 6.68491 36.6863 6.51288C36.2991 6.34085 35.8811 6.25137 35.4583 6.24999H16.9583C16.5526 6.24761 16.1503 6.32644 15.7746 6.48196C15.399 6.63747 15.0573 6.86661 14.7692 7.15624L7.06084 14.9375C6.77507 15.2295 6.54898 15.5758 6.39554 15.9565C6.2421 16.3373 6.16432 16.745 6.16667 17.1562V35.9062C6.17803 36.7336 6.49741 37.5261 7.06084 38.125L36.3217 67.8125C36.9125 68.3835 37.6945 68.7072 38.5108 68.7187C38.9166 68.7211 39.3189 68.6423 39.6945 68.4868C40.0702 68.3313 40.4119 68.1021 40.7 67.8125L66.9392 41.2187C67.2249 40.9267 67.451 40.5804 67.6045 40.1997C67.7579 39.819 67.8357 39.4113 67.8333 39C67.8143 38.1834 67.4955 37.4035 66.9392 36.8125ZM38.5108 61.2187L12.3333 34.6562V18.4375L18.1917 12.5H34.1633L60.3717 39.0312L38.5108 61.2187Z" fill="#E5DEFC"/>
</g>
<defs>
<filter id="filter0_d_0_147" x="-4" y="0" width="82" height="83" filterUnits="userSpaceOnUse" color-interpolation-filters="sRGB">
<feFlood flood-opacity="0" result="BackgroundImageFix"/>
<feColorMatrix in="SourceAlpha" type="matrix" values="0 0 0 0 0 0 0 0 0 0 0 0 0 0 0 0 0 0 127 0" result="hardAlpha"/>
<feOffset dy="4"/>
<feGaussianBlur stdDeviation="2"/>
<feComposite in2="hardAlpha" operator="out"/>
<feColorMatrix type="matrix" values="0 0 0 0 0 0 0 0 0 0 0 0 0 0 0 0 0 0 0.25 0"/>
<feBlend mode="normal" in2="BackgroundImageFix" result="effect1_dropShadow_0_147"/>
<feBlend mode="normal" in="SourceGraphic" in2="effect1_dropShadow_0_147" result="shape"/>
</filter>
</defs>
</svg>
