<svg width="123" height="124" viewBox="0 0 123 124" fill="none" xmlns="http://www.w3.org/2000/svg">
<g filter="url(#filter0_d_219_91)">
<rect x="4" width="115" height="116" rx="12" fill="#968EC4"/>
</g>
<path d="M38.1333 53.3C47.0571 53.3 54.2667 60.5096 54.2667 69.4333C54.2667 78.3571 47.0571 85.5667 38.1333 85.5667C29.2096 85.5667 22 78.3571 22 69.4333C22 60.5096 29.2096 53.3 38.1333 53.3ZM76.45 77.5C79.1243 77.5 81.689 78.5624 83.58 80.4533C85.471 82.3443 86.5333 84.9091 86.5333 87.5833C86.5333 90.2576 85.471 92.8223 83.58 94.7133C81.689 96.6043 79.1243 97.6667 76.45 97.6667C73.7757 97.6667 71.211 96.6043 69.32 94.7133C67.429 92.8223 66.3667 90.2576 66.3667 87.5833C66.3667 84.9091 67.429 82.3443 69.32 80.4533C71.211 78.5624 73.7757 77.5 76.45 77.5ZM78.4667 17C81.6447 17 84.7915 17.626 87.7276 18.8421C90.6637 20.0583 93.3315 21.8408 95.5787 24.088C97.8258 26.3352 99.6084 29.003 100.825 31.9391C102.041 34.8751 102.667 38.022 102.667 41.2C102.667 54.5604 91.8271 65.4 78.4667 65.4C72.0484 65.4 65.8931 62.8504 61.3547 58.312C56.8163 53.7736 54.2667 47.6182 54.2667 41.2C54.2667 27.8396 65.1063 17 78.4667 17Z" fill="#F0F0F0"/>
<defs>
<filter id="filter0_d_219_91" x="0" y="0" width="123" height="124" filterUnits="userSpaceOnUse" color-interpolation-filters="sRGB">
<feFlood flood-opacity="0" result="BackgroundImageFix"/>
<feColorMatrix in="SourceAlpha" type="matrix" values="0 0 0 0 0 0 0 0 0 0 0 0 0 0 0 0 0 0 127 0" result="hardAlpha"/>
<feOffset dy="4"/>
<feGaussianBlur stdDeviation="2"/>
<feComposite in2="hardAlpha" operator="out"/>
<feColorMatrix type="matrix" values="0 0 0 0 0 0 0 0 0 0 0 0 0 0 0 0 0 0 0.25 0"/>
<feBlend mode="normal" in2="BackgroundImageFix" result="effect1_dropShadow_219_91"/>
<feBlend mode="normal" in="SourceGraphic" in2="effect1_dropShadow_219_91" result="shape"/>
</filter>
</defs>
</svg>
