<svg width="25" height="24" viewBox="0 0 25 24" fill="none" xmlns="http://www.w3.org/2000/svg">
<path d="M22.6145 20.29L18.75 16.61C20.2501 14.8144 20.9765 12.5353 20.78 10.2413C20.5834 7.94733 19.4788 5.81281 17.6932 4.27667C15.9076 2.74053 13.5768 1.91954 11.1801 1.9825C8.78334 2.04546 6.5028 2.98759 4.8074 4.61517C3.11201 6.24275 2.13062 8.43207 2.06503 10.7329C1.99945 13.0338 2.85466 15.2714 4.4548 16.9855C6.05494 18.6997 8.2784 19.7601 10.668 19.9488C13.0576 20.1375 15.4316 19.4401 17.302 18L21.1354 21.68C21.2322 21.7738 21.3474 21.8482 21.4744 21.8989C21.6013 21.9497 21.7375 21.9758 21.875 21.9758C22.0125 21.9758 22.1486 21.9497 22.2756 21.8989C22.4025 21.8482 22.5177 21.7738 22.6145 21.68C22.8023 21.4936 22.9072 21.2444 22.9072 20.985C22.9072 20.7257 22.8023 20.4765 22.6145 20.29ZM11.4583 18C10.0161 18 8.60637 17.5895 7.40726 16.8203C6.20815 16.0511 5.27356 14.9579 4.72167 13.6788C4.16978 12.3997 4.02538 10.9923 4.30674 9.63439C4.58809 8.27653 5.28255 7.02925 6.30231 6.05028C7.32207 5.07131 8.62132 4.40463 10.0358 4.13453C11.4502 3.86443 12.9163 4.00306 14.2487 4.53287C15.5811 5.06268 16.7199 5.95989 17.5211 7.11103C18.3223 8.26218 18.75 9.61556 18.75 11C18.75 12.8565 17.9817 14.637 16.6143 15.9498C15.2468 17.2625 13.3922 18 11.4583 18Z" fill="white"/>
</svg>
