<svg width="197" height="49" viewBox="0 0 197 49" fill="none" xmlns="http://www.w3.org/2000/svg">
<path d="M46.056 8.344L38.184 14.68C35.24 11.992 31.272 9.112 25.448 9.112C21.992 9.112 19.304 10.136 19.304 12.952C19.304 16.6 23.976 16.984 29.736 18.712C37.928 21.144 43.496 24.856 43.496 32.792C43.496 42.712 34.92 48.216 23.656 48.216C15.272 48.216 5.8 45.144 0.68 38.808L8.552 32.472C12.136 35.928 16.872 39.128 23.4 39.128C26.92 39.128 29.928 38.168 29.928 35.224C29.928 31.256 24.552 30.552 18.664 28.76C10.92 26.392 5.672 23.128 5.672 15.32C5.672 5.848 13.48 0.0239983 24.552 0.0239983C32.296 0.0239983 40.872 2.84 46.056 8.344ZM66.416 1.24L63.344 18.264H63.472C67.184 14.616 71.088 12.888 74.864 12.888C80.368 12.888 84.528 15.768 84.528 21.336C84.528 23.192 84.08 26.328 83.568 29.016L80.368 47H68.08L71.088 30.36C71.536 27.48 71.728 26.264 71.728 25.112C71.728 22.936 70.832 21.528 68.528 21.528C66.416 21.528 64.112 22.744 62.256 24.728L58.288 47H46L54.064 1.24H66.416ZM101.339 23.256L91.291 20.44C94.747 14.488 100.443 12.76 106.907 12.76C113.243 12.76 123.099 14.424 123.099 24.728C123.099 26.776 122.715 28.312 122.267 30.936L120.603 41.048C120.347 42.456 120.155 44.056 119.963 47H108.699C108.763 45.848 108.827 44.504 109.019 43.032H108.891C105.435 46.04 102.043 48.024 97.243 48.024C92.059 48.024 86.491 45.592 86.491 38.424C86.491 28.888 96.411 26.136 106.011 26.136C106.907 26.136 108.571 26.136 111.259 26.264C111.451 25.24 111.579 24.664 111.579 24.088C111.579 21.528 109.659 19.992 106.907 19.992C104.411 19.992 102.811 21.208 101.339 23.256ZM103.067 40.536C105.627 40.536 107.931 38.872 109.275 37.336L110.299 31.64H108.763C104.539 31.64 99.291 32.664 99.291 37.016C99.291 39.448 100.955 40.536 103.067 40.536ZM126 47L131.824 13.912H142.832L141.616 20.76H141.744C144.752 15.576 148.72 12.888 152.944 12.888C153.584 12.888 154.288 12.952 154.992 13.144L153.008 24.344C152.048 23.96 150.896 23.704 149.808 23.704C145.328 23.704 142.192 27.288 140.848 32.408L138.352 47H126ZM190.879 47H177.311L172.511 33.432L167.263 37.784L165.663 47H153.375L161.439 1.24H173.791L169.439 25.56H169.567L182.367 13.912H196.063V14.04L182.303 25.368L190.879 46.872V47Z" fill="#968EC4"/>
</svg>
