<svg width="88" height="63" viewBox="0 0 88 63" fill="none" xmlns="http://www.w3.org/2000/svg">
<path d="M0 13.7812H38.5618L41.5281 19.6875H2.96629L0 13.7812ZM3.95506 25.5938H42.5169L45.4831 31.5H6.92135L3.95506 25.5938ZM68.2247 57.0938C71.5074 57.0938 74.1573 54.4556 74.1573 51.1875C74.1573 47.9194 71.5074 45.2812 68.2247 45.2812C64.942 45.2812 62.2921 47.9194 62.2921 51.1875C62.2921 54.4556 64.942 57.0938 68.2247 57.0938ZM74.1573 21.6562H64.2697V31.5H81.9092L74.1573 21.6562ZM28.6742 57.0938C31.9569 57.0938 34.6067 54.4556 34.6067 51.1875C34.6067 47.9194 31.9569 45.2812 28.6742 45.2812C25.3915 45.2812 22.7416 47.9194 22.7416 51.1875C22.7416 54.4556 25.3915 57.0938 28.6742 57.0938ZM76.1348 15.75L88 31.5V51.1875H80.0899C80.0899 57.7238 74.7901 63 68.2247 63C61.6593 63 56.3596 57.7238 56.3596 51.1875H40.5393C40.5393 57.7238 35.2 63 28.6742 63C22.1088 63 16.809 57.7238 16.809 51.1875H8.89888V37.4062H16.809V43.3125H19.8148C21.9901 40.9106 25.1542 39.375 28.6742 39.375C32.1942 39.375 35.3582 40.9106 37.5335 43.3125H56.3596V7.875H8.89888C8.89888 3.50437 12.4189 0 16.809 0H64.2697V15.75H76.1348Z" fill="#E5DEFC"/>
</svg>
