<svg width="31" height="31" viewBox="0 0 31 31" fill="none" xmlns="http://www.w3.org/2000/svg">
<path d="M28.4166 7.49169C27.4457 7.9129 26.419 8.19134 25.3683 8.31836C26.4768 7.65615 27.3075 6.61437 27.7062 5.38628C26.6646 6.00636 25.5243 6.44324 24.335 6.67794C23.54 5.81585 22.4814 5.24199 21.3251 5.04638C20.1689 4.85076 18.9804 5.04445 17.9461 5.59706C16.9118 6.14968 16.0902 7.02996 15.6101 8.09986C15.13 9.16975 15.0186 10.3687 15.2933 11.5088C13.1872 11.4022 11.127 10.8538 9.24657 9.89918C7.36618 8.94452 5.70766 7.60496 4.37873 5.96753C3.91262 6.78149 3.66769 7.7033 3.66831 8.64128C3.66666 9.51235 3.88043 10.3703 4.29058 11.1388C4.70073 11.9073 5.29454 12.5624 6.01915 13.0459C5.17695 13.0229 4.35275 12.797 3.61665 12.3871V12.4517C3.62296 13.6722 4.05064 14.853 4.82734 15.7945C5.60405 16.7359 6.6821 17.3802 7.87915 17.6184C7.41835 17.7586 6.93994 17.8325 6.45831 17.8379C6.12492 17.8341 5.79236 17.8038 5.46373 17.7475C5.80461 18.7974 6.46428 19.7149 7.35095 20.3724C8.23762 21.0299 9.30718 21.3946 10.4108 21.4159C8.5472 22.8822 6.24633 23.6826 3.87498 23.6892C3.44322 23.6906 3.0118 23.6647 2.58331 23.6117C5.00445 25.1749 7.82595 26.0048 10.7079 26.0013C12.6967 26.0219 14.6696 25.6461 16.5115 24.8957C18.3534 24.1453 20.0273 23.0355 21.4354 21.6309C22.8436 20.2264 23.9578 18.5553 24.7129 16.7154C25.468 14.8754 25.8489 12.9034 25.8333 10.9146C25.8333 10.695 25.8333 10.4625 25.8333 10.23C26.8469 9.47416 27.7211 8.54753 28.4166 7.49169Z" fill="#676573"/>
</svg>
