<svg width="33" height="32" viewBox="0 0 33 32" fill="none" xmlns="http://www.w3.org/2000/svg">
<path d="M21.6013 16.9466C22.9493 15.9182 23.9333 14.5079 24.4163 12.9119C24.8992 11.3159 24.8572 9.61365 24.296 8.04192C23.7348 6.47019 22.6824 5.10715 21.2852 4.14244C19.8879 3.17772 18.2153 2.6593 16.5001 2.6593C14.7848 2.6593 13.1122 3.17772 11.715 4.14244C10.3177 5.10715 9.26528 6.47019 8.7041 8.04192C8.14292 9.61365 8.10089 11.3159 8.58385 12.9119C9.06682 14.5079 10.0508 15.9182 11.3988 16.9466C9.08891 17.844 7.07345 19.3324 5.56728 21.2532C4.06112 23.1739 3.12071 25.455 2.84631 27.8533C2.82644 28.0284 2.84234 28.2056 2.89309 28.3747C2.94384 28.5438 3.02845 28.7016 3.14208 28.8391C3.37158 29.1166 3.70538 29.2944 4.07006 29.3333C4.43473 29.3722 4.8004 29.269 5.08663 29.0465C5.37286 28.8239 5.55619 28.5002 5.59631 28.1466C5.89824 25.5402 7.17988 23.133 9.19636 21.385C11.2128 19.637 13.8228 18.6707 16.5276 18.6707C19.2323 18.6707 21.8423 19.637 23.8588 21.385C25.8752 23.133 27.1569 25.5402 27.4588 28.1466C27.4962 28.4743 27.6574 28.7768 27.9113 28.996C28.1653 29.2151 28.4939 29.3353 28.8338 29.3333H28.9851C29.3455 29.2931 29.6749 29.1164 29.9016 28.8416C30.1282 28.5669 30.2337 28.2164 30.1951 27.8666C29.9194 25.4616 28.9739 23.1746 27.46 21.2509C25.9461 19.3272 23.9208 17.8393 21.6013 16.9466ZM16.5001 16C15.4123 16 14.3489 15.6872 13.4444 15.1011C12.54 14.5151 11.835 13.6821 11.4187 12.7076C11.0024 11.7331 10.8935 10.6607 11.1057 9.62615C11.318 8.59158 11.8418 7.64127 12.611 6.89539C13.3802 6.14951 14.3602 5.64156 15.4271 5.43577C16.494 5.22999 17.5998 5.3356 18.6048 5.73927C19.6098 6.14294 20.4688 6.82653 21.0731 7.70359C21.6775 8.58065 22.0001 9.6118 22.0001 10.6666C22.0001 12.0811 21.4206 13.4377 20.3891 14.4379C19.3577 15.4381 17.9587 16 16.5001 16Z" fill="#3C394A"/>
</svg>
