<svg width="33" height="33" viewBox="0 0 33 33" fill="none" xmlns="http://www.w3.org/2000/svg">
<path d="M31.625 13.3513C31.693 11.3832 31.2626 9.42981 30.3737 7.67254C29.7707 6.95149 28.9337 6.46489 28.0087 6.29754C24.1828 5.95039 20.3411 5.8081 16.5 5.87129C12.6729 5.80523 8.84495 5.94293 5.03248 6.28379C4.27873 6.4209 3.58119 6.77445 3.02498 7.30129C1.78748 8.44254 1.64998 10.395 1.51248 12.045C1.31298 15.0117 1.31298 17.9884 1.51248 20.955C1.55225 21.8837 1.69053 22.8056 1.92498 23.705C2.09077 24.3995 2.42619 25.042 2.90123 25.575C3.46122 26.1298 4.175 26.5034 4.94998 26.6475C7.91436 27.0135 10.9013 27.1651 13.8875 27.1013C18.7 27.17 22.9212 27.1013 27.9125 26.7163C28.7065 26.5811 29.4404 26.2069 30.0162 25.6438C30.4012 25.2587 30.6887 24.7873 30.855 24.2688C31.3467 22.7599 31.5882 21.1807 31.57 19.5938C31.625 18.8238 31.625 14.1763 31.625 13.3513ZM13.3925 20.4188V11.9075L21.5325 16.1838C19.25 17.4488 16.2387 18.8788 13.3925 20.4188Z" fill="#676573"/>
</svg>
